<?xml version="1.0" encoding="UTF-8" standalone="no"?><svg xmlns="http://www.w3.org/2000/svg" xmlns:xlink="http://www.w3.org/1999/xlink" contentScriptType="application/ecmascript" contentStyleType="text/css" height="561px" preserveAspectRatio="none" style="width:996px;height:561px;" version="1.1" viewBox="0 0 996 561" width="996px" zoomAndPan="magnify"><defs><filter height="300%" id="fw3xm16" width="300%" x="-1" y="-1"><feGaussianBlur result="blurOut" stdDeviation="2.0"/><feColorMatrix in="blurOut" result="blurOut2" type="matrix" values="0 0 0 0 0 0 0 0 0 0 0 0 0 0 0 0 0 0 .4 0"/><feOffset dx="4.0" dy="4.0" in="blurOut2" result="blurOut3"/><feBlend in="SourceGraphic" in2="blurOut3" mode="normal"/></filter></defs><g><!--cluster 実績データ--><rect fill="#FFFFFF" filter="url(#fw3xm16)" height="331" style="stroke: #000000; stroke-width: 2.0;" width="144" x="22" y="210"/><text fill="#000000" font-family="sans-serif" font-size="14" font-weight="bold" lengthAdjust="spacingAndGlyphs" textLength="75" x="56.5" y="226.5332">実績データ</text><!--cluster Java--><rect fill="#FFFFFF" filter="url(#fw3xm16)" height="358" style="stroke: #000000; stroke-width: 2.0;" width="547" x="301" y="196"/><text fill="#000000" font-family="sans-serif" font-size="14" font-weight="bold" lengthAdjust="spacingAndGlyphs" textLength="33" x="558" y="212.5332">Java</text><!--cluster ##14485--><rect fill="#FFFFFF" filter="url(#fw3xm16)" height="290" style="stroke: #000000; stroke-width: 2.0;" width="196" x="325" y="240"/><!--cluster ##14491--><rect fill="#FFFFFF" filter="url(#fw3xm16)" height="158" style="stroke: #000000; stroke-width: 2.0;" width="209" x="615" y="306"/><!--cluster DB--><rect fill="#FFFFFF" filter="url(#fw3xm16)" height="252" style="stroke: #000000; stroke-width: 2.0;" width="108" x="881" y="202"/><text fill="#000000" font-family="sans-serif" font-size="14" font-weight="bold" lengthAdjust="spacingAndGlyphs" textLength="20" x="925" y="218.5332">DB</text><!--entity ba--><rect fill="#FEFECE" filter="url(#fw3xm16)" height="37.6094" rx="35" ry="35" style="stroke: #000000; stroke-width: 1.5;" width="57" x="65.5" y="246"/><text fill="#000000" font-family="sans-serif" font-size="14" lengthAdjust="spacingAndGlyphs" textLength="37" x="75.5" y="270.5332">媒体A</text><!--entity bb--><rect fill="#FEFECE" filter="url(#fw3xm16)" height="37.6094" rx="35" ry="35" style="stroke: #000000; stroke-width: 1.5;" width="57" x="65.5" y="319"/><text fill="#000000" font-family="sans-serif" font-size="14" lengthAdjust="spacingAndGlyphs" textLength="37" x="75.5" y="343.5332">媒体B</text><!--entity bc--><rect fill="#FEFECE" filter="url(#fw3xm16)" height="37.6094" rx="35" ry="35" style="stroke: #000000; stroke-width: 1.5;" width="57" x="65.5" y="392"/><text fill="#000000" font-family="sans-serif" font-size="14" lengthAdjust="spacingAndGlyphs" textLength="37" x="75.5" y="416.5332">媒体B</text><polygon fill="#FBFB77" filter="url(#fw3xm16)" points="38,465.5,38,524.5547,150,524.5547,150,475.5,140,465.5,38,465.5" style="stroke: #A80036; stroke-width: 1.0;"/><line style="stroke: #A80036; stroke-width: 1.0;" x1="140" x2="140" y1="465.5" y2="475.5"/><line style="stroke: #A80036; stroke-width: 1.0;" x1="150" x2="140" y1="475.5" y2="475.5"/><text fill="#000000" font-family="sans-serif" font-size="13" lengthAdjust="spacingAndGlyphs" textLength="65" x="44" y="483.9951">広告媒体の</text><text fill="#000000" font-family="sans-serif" font-size="13" lengthAdjust="spacingAndGlyphs" textLength="91" x="44" y="500.3467">クリックなどの</text><text fill="#000000" font-family="sans-serif" font-size="13" lengthAdjust="spacingAndGlyphs" textLength="65" x="44" y="516.6982">実績データ</text><ellipse cx="423.1482" cy="271.9517" fill="#FEFECE" filter="url(#fw3xm16)" rx="37.6482" ry="15.4517" style="stroke: #A80036; stroke-width: 1.5;"/><text fill="#000000" font-family="sans-serif" font-size="14" lengthAdjust="spacingAndGlyphs" textLength="49" x="398.6482" y="277.2564">Batch A</text><ellipse cx="423.1482" cy="337.9517" fill="#FEFECE" filter="url(#fw3xm16)" rx="37.6482" ry="15.4517" style="stroke: #A80036; stroke-width: 1.5;"/><text fill="#000000" font-family="sans-serif" font-size="14" lengthAdjust="spacingAndGlyphs" textLength="49" x="398.6482" y="343.2564">Batch B</text><ellipse cx="422.8553" cy="403.9517" fill="#FEFECE" filter="url(#fw3xm16)" rx="38.3553" ry="15.4517" style="stroke: #A80036; stroke-width: 1.5;"/><text fill="#000000" font-family="sans-serif" font-size="14" lengthAdjust="spacingAndGlyphs" textLength="50" x="397.8553" y="409.2564">Batch C</text><polygon fill="#FBFB77" filter="url(#fw3xm16)" points="341,454.5,341,513.5547,505,513.5547,505,464.5,495,454.5,341,454.5" style="stroke: #A80036; stroke-width: 1.0;"/><line style="stroke: #A80036; stroke-width: 1.0;" x1="495" x2="495" y1="454.5" y2="464.5"/><line style="stroke: #A80036; stroke-width: 1.0;" x1="505" x2="495" y1="464.5" y2="464.5"/><text fill="#000000" font-family="sans-serif" font-size="13" lengthAdjust="spacingAndGlyphs" textLength="143" x="347" y="472.9951">媒体毎に取り込み処理と</text><text fill="#000000" font-family="sans-serif" font-size="13" lengthAdjust="spacingAndGlyphs" textLength="117" x="347" y="489.3467">共通フォーマットへ</text><text fill="#000000" font-family="sans-serif" font-size="13" lengthAdjust="spacingAndGlyphs" textLength="91" x="347" y="505.6982">コンバートする</text><ellipse cx="719.598" cy="337.9517" fill="#FEFECE" filter="url(#fw3xm16)" rx="42.598" ry="15.4517" style="stroke: #A80036; stroke-width: 1.5;"/><text fill="#000000" font-family="sans-serif" font-size="14" lengthAdjust="spacingAndGlyphs" textLength="56" x="691.598" y="343.2564">共通処理</text><polygon fill="#FBFB77" filter="url(#fw3xm16)" points="631,388.5,631,447.5547,808,447.5547,808,398.5,798,388.5,631,388.5" style="stroke: #A80036; stroke-width: 1.0;"/><line style="stroke: #A80036; stroke-width: 1.0;" x1="798" x2="798" y1="388.5" y2="398.5"/><line style="stroke: #A80036; stroke-width: 1.0;" x1="808" x2="798" y1="398.5" y2="398.5"/><text fill="#000000" font-family="sans-serif" font-size="13" lengthAdjust="spacingAndGlyphs" textLength="104" x="637" y="406.9951">バリデーション後</text><text fill="#000000" font-family="sans-serif" font-size="13" lengthAdjust="spacingAndGlyphs" textLength="156" x="637" y="423.3467">マスタデータと実績データ</text><text fill="#000000" font-family="sans-serif" font-size="13" lengthAdjust="spacingAndGlyphs" textLength="65" x="637" y="439.6982">を保存する</text><!--entity master--><path d="M903.5,248.5 C903.5,238.5 935,238.5 935,238.5 C935,238.5 966.5,238.5 966.5,248.5 L966.5,271.1094 C966.5,281.1094 935,281.1094 935,281.1094 C935,281.1094 903.5,281.1094 903.5,271.1094 L903.5,248.5 " fill="#FEFECE" filter="url(#fw3xm16)" style="stroke: #000000; stroke-width: 1.5;"/><path d="M903.5,248.5 C903.5,258.5 935,258.5 935,258.5 C935,258.5 966.5,258.5 966.5,248.5 " fill="none" style="stroke: #000000; stroke-width: 1.5;"/><text fill="#000000" font-family="sans-serif" font-size="14" lengthAdjust="spacingAndGlyphs" textLength="43" x="913.5" y="273.0332">master</text><!--entity 実績--><path d="M911,326.5 C911,316.5 935,316.5 935,316.5 C935,316.5 959,316.5 959,326.5 L959,349.1094 C959,359.1094 935,359.1094 935,359.1094 C935,359.1094 911,359.1094 911,349.1094 L911,326.5 " fill="#FEFECE" filter="url(#fw3xm16)" style="stroke: #000000; stroke-width: 1.5;"/><path d="M911,326.5 C911,336.5 935,336.5 935,336.5 C935,336.5 959,336.5 959,326.5 " fill="none" style="stroke: #000000; stroke-width: 1.5;"/><text fill="#000000" font-family="sans-serif" font-size="14" lengthAdjust="spacingAndGlyphs" textLength="28" x="921" y="351.0332">実績</text><!--entity 処理結果--><path d="M897,404.5 C897,394.5 935,394.5 935,394.5 C935,394.5 973,394.5 973,404.5 L973,427.1094 C973,437.1094 935,437.1094 935,437.1094 C935,437.1094 897,437.1094 897,427.1094 L897,404.5 " fill="#FEFECE" filter="url(#fw3xm16)" style="stroke: #000000; stroke-width: 1.5;"/><path d="M897,404.5 C897,414.5 935,414.5 935,414.5 C935,414.5 973,414.5 973,404.5 " fill="none" style="stroke: #000000; stroke-width: 1.5;"/><text fill="#000000" font-family="sans-serif" font-size="14" lengthAdjust="spacingAndGlyphs" textLength="56" x="907" y="429.0332">処理結果</text><!--entity Jenkins--><ellipse cx="94" cy="66.5" fill="#FEFECE" filter="url(#fw3xm16)" rx="8" ry="8" style="stroke: #A80036; stroke-width: 2.0;"/><path d="M94,74.5 L94,101.5 M81,82.5 L107,82.5 M94,101.5 L81,116.5 M94,101.5 L107,116.5 " fill="#FEFECE" filter="url(#fw3xm16)" style="stroke: #A80036; stroke-width: 2.0;"/><text fill="#000000" font-family="sans-serif" font-size="14" lengthAdjust="spacingAndGlyphs" textLength="47" x="70.5" y="138.0332">Jenkins</text><ellipse cx="422.7775" cy="150.9555" fill="#FEFECE" filter="url(#fw3xm16)" rx="130.2775" ry="28.4555" style="stroke: #A80036; stroke-width: 1.5;"/><text fill="#000000" font-family="sans-serif" font-size="14" lengthAdjust="spacingAndGlyphs" textLength="56" x="394.7775" y="140.233">定時処理</text><line style="stroke: #A80036; stroke-width: 1.0;" x1="298.2915" x2="547.2634" y1="143.3092" y2="143.3092"/><text fill="#000000" font-family="sans-serif" font-size="14" lengthAdjust="spacingAndGlyphs" textLength="210" x="317.7775" y="161.8424">全媒体実績取り込みバッチを実行</text><ellipse cx="422.9667" cy="48.0914" fill="#FEFECE" filter="url(#fw3xm16)" rx="144.9667" ry="39.5914" style="stroke: #A80036; stroke-width: 1.5;"/><text fill="#000000" font-family="sans-serif" font-size="14" lengthAdjust="spacingAndGlyphs" textLength="98" x="373.9667" y="27.858">リカバリー処理</text><line style="stroke: #A80036; stroke-width: 1.0;" x1="293.3195" x2="552.614" y1="30.9342" y2="30.9342"/><text fill="#000000" font-family="sans-serif" font-size="14" lengthAdjust="spacingAndGlyphs" textLength="210" x="317.9667" y="49.4674">アカウント単位で取り込み失敗を</text><text fill="#000000" font-family="sans-serif" font-size="14" lengthAdjust="spacingAndGlyphs" textLength="224" x="310.9667" y="67.0768">リカバリーできる媒体のリカバリー</text><path d="M117.734,102.615 C157.48,108.936 242.024,122.38 311.928,133.496 " fill="none" style="stroke: #A80036; stroke-width: 1.0;"/><polygon fill="#A80036" points="316.935,134.292,308.6755,128.9272,311.9971,133.5062,307.4182,136.8278,316.935,134.292" style="stroke: #A80036; stroke-width: 1.0;"/><path d="M117.734,95.454 C153.73,89.84 226.47,78.495 291.802,68.306 " fill="none" style="stroke: #A80036; stroke-width: 1.0;"/><polygon fill="#A80036" points="296.893,67.512,287.3843,64.9458,291.9527,68.2821,288.6164,72.8504,296.893,67.512" style="stroke: #A80036; stroke-width: 1.0;"/><path d="M122.598,265.591 C179.998,266.82 312.535,269.657 380.364,271.109 " fill="none" style="stroke: #A80036; stroke-width: 1.0;"/><polygon fill="#A80036" points="385.531,271.219,376.6188,267.0271,380.5321,271.1119,376.4473,275.0252,385.531,271.219" style="stroke: #A80036; stroke-width: 1.0;"/><text fill="#000000" font-family="sans-serif" font-size="13" lengthAdjust="spacingAndGlyphs" textLength="45" x="192.5" y="262.4951">api json</text><path d="M122.598,338 C179.923,338 312.188,338 380.098,338 " fill="none" style="stroke: #A80036; stroke-width: 1.0;"/><polygon fill="#A80036" points="385.272,338,376.272,334,380.272,338,376.272,342,385.272,338" style="stroke: #A80036; stroke-width: 1.0;"/><text fill="#000000" font-family="sans-serif" font-size="13" lengthAdjust="spacingAndGlyphs" textLength="40" x="195" y="334.4951">api csv</text><path d="M122.598,410.409 C179.698,409.187 311.151,406.373 379.295,404.914 " fill="none" style="stroke: #A80036; stroke-width: 1.0;"/><polygon fill="#A80036" points="384.489,404.803,375.4054,400.9967,379.4901,404.9101,375.5768,408.9949,384.489,404.803" style="stroke: #A80036; stroke-width: 1.0;"/><text fill="#000000" font-family="sans-serif" font-size="13" lengthAdjust="spacingAndGlyphs" textLength="64" x="183" y="403.4951">aws s3 csv</text><path d="M456.359,279.252 C510.315,291.344 618.556,315.602 677.672,328.85 " fill="none" style="stroke: #A80036; stroke-width: 1.0;"/><polygon fill="#A80036" points="682.887,330.019,674.9807,324.1462,678.0082,328.9247,673.2297,331.9522,682.887,330.019" style="stroke: #A80036; stroke-width: 1.0;"/><path d="M460.703,338 C513.987,338 612.782,338 671.381,338 " fill="none" style="stroke: #A80036; stroke-width: 1.0;"/><polygon fill="#A80036" points="676.574,338,667.574,334,671.574,338,667.574,342,676.574,338" style="stroke: #A80036; stroke-width: 1.0;"/><path d="M456.926,396.621 C510.98,384.507 618.405,360.432 677.378,347.216 " fill="none" style="stroke: #A80036; stroke-width: 1.0;"/><polygon fill="#A80036" points="682.582,346.049,672.9254,344.1125,677.7029,347.1417,674.6737,351.9191,682.582,346.049" style="stroke: #A80036; stroke-width: 1.0;"/><path d="M750.186,327.154 C788.942,312.995 856.716,288.235 898.252,273.06 " fill="none" style="stroke: #A80036; stroke-width: 1.0;"/><polygon fill="#A80036" points="903.183,271.259,893.3568,270.5906,898.4867,272.9749,896.1024,278.1048,903.183,271.259" style="stroke: #A80036; stroke-width: 1.0;"/><path d="M762.172,338 C804.505,338 868.918,338 905.671,338 " fill="none" style="stroke: #A80036; stroke-width: 1.0;"/><polygon fill="#A80036" points="910.887,338,901.887,334,905.887,338,901.887,342,910.887,338" style="stroke: #A80036; stroke-width: 1.0;"/><path d="M758.486,344.252 C786.155,349.52 824.198,358.258 856,371 C869.83,376.541 884.172,384.193 896.728,391.615 " fill="none" style="stroke: #A80036; stroke-width: 1.0;"/><polygon fill="#A80036" points="901.269,394.335,895.6032,386.279,896.9795,391.7659,891.4926,393.1422,901.269,394.335" style="stroke: #A80036; stroke-width: 1.0;"/></g></svg>